<svg xmlns="http://www.w3.org/2000/svg" xmlns:xlink="http://www.w3.org/1999/xlink" viewBox="0 0 94.1 78.9"><defs><style>.cls-1{fill:#7c0fab;}.cls-2{fill:url(#linear-gradient);}</style><linearGradient id="linear-gradient" x1="45.58" y1="328.28" x2="89.22" y2="252.68" gradientTransform="translate(0 -246)" gradientUnits="userSpaceOnUse"><stop offset="0" stop-color="#7c0fab"></stop><stop offset="1" stop-color="#f41622"></stop></linearGradient></defs><g id="Layer_2" data-name="Layer 2"><g id="Layer_1-2" data-name="Layer 1"><path class="cls-1" d="M58.7,77.4A45.78,45.78,0,0,1,47,78.9a45.42,45.42,0,0,1-11.8-1.5h0A95,95,0,0,0,6.3,51.7a9.39,9.39,0,0,1-4.2-5.2A45.41,45.41,0,0,1,0,32.6,45.3,45.3,0,0,1,7.7,7.2,9.47,9.47,0,0,1,21.2,4.9,94.1,94.1,0,0,1,47.1,34.1,93.19,93.19,0,0,1,58.7,77.4Z"></path><path class="cls-2" d="M94.1,32.6a44.46,44.46,0,0,1-3.5,17.5A98.91,98.91,0,0,0,69.5,65.2,89.76,89.76,0,0,0,58.7,77.5h0A91,91,0,0,0,46.9,34.2,92.85,92.85,0,0,1,80.3,0a42.39,42.39,0,0,1,6.3,7.7A44.84,44.84,0,0,1,94.1,32.6Z"></path></g></g></svg>